
_____________________________________________________________________________ 
       ooooooo        ooooooo       ooo       ooooooo      ooooo      ooo
    ooo       ooo  ooo       ooo    ooo    ooo       ooo   oooooo     ooo 
    ooo       ooo  ooo      ooo     ooo    ooo       ooo   ooo ooo    ooo 
    ooo       ooo  ooo     ooo      ooo    ooo       ooo   ooo  ooo   ooo 
    ooo       ooo  oooooooooo       ooo    ooo       ooo   ooo   ooo  ooo
    ooo       ooo  ooo     ooo      ooo    ooo       ooo   ooo    ooo ooo
    ooo       ooo  ooo      ooo     ooo    ooo       ooo   ooo     oooooo
       ooooooo     ooo       ooo    ooo       ooooooo      ooo      ooooo
          
                                                 
                        ooooooo ooooooo         ooooooo       
                      ooo     ooo     ooo     ooo
                      ooo     ooo     ooo     ooo
                      ooo     ooo     ooo     ooooooooo
                      ooo     ooo     ooo     ooooooooo
                      ooo     ooo     ooo     ooo
                      ooo     ooo     ooo     ooo
                      ooo     ooo     ooo       ooooooo
______________________________________________________________________________

KEEP LOOKING FORWARD TO FUTURE RELEASES.......Please seed as long as you can!!

Contains the Kate Beckinsale yoga segment of After Lately aired on E! on March 22,2013

General
Complete name                    : Kate Beckinsale Yoga Segment@After Lately March 22,2013 720p HD[Orion_Me]VideoKate Beckinsale Yoga Segment@After Lately March 22,2013 720p HD[Orion_Me].mp4
Format                           : MPEG-4
Format profile                   : Base Media / Version 2
Codec ID                         : mp42
File size                        : 15.5 MiB
Duration                         : 1mn 5s
Overall bit rate                 : 1 990 Kbps

Video
ID                               : 1
Format                           : AVC
Format/Info                      : Advanced Video Codec
Format profile                   : High@L3.1
Format settings, CABAC           : Yes
Format settings, ReFrames        : 1 frame
Codec ID                         : avc1
Codec ID/Info                    : Advanced Video Coding
Duration                         : 1mn 5s
Bit rate mode                    : Variable
Bit rate                         : 1 796 Kbps
Maximum bit rate                 : 6 472 Kbps
Width                            : 1 280 pixels
Height                           : 720 pixels
Display aspect ratio             : 16:9
Frame rate mode                  : Constant
Frame rate                       : 29.970 fps
Color space                      : YUV
Chroma subsampling               : 4:2:0
Bit depth                        : 8 bits
Scan type                        : Progressive
Bits/(Pixel*Frame)               : 0.065
Stream size                      : 14.0 MiB (90%)

Audio
ID                               : 2
Format                           : AAC
Format/Info                      : Advanced Audio Codec
Format version                   : Version 4
Format profile                   : LC
Format settings, SBR             : No
Codec ID                         : 40
Duration                         : 1mn 5s
Bit rate mode                    : Variable
Bit rate                         : 192 Kbps
Maximum bit rate                 : 201 Kbps
Channel(s)                       : 2 channels
Channel positions                : Front: L R
Sampling rate                    : 44.1 KHz
Stream size                      : 1.49 MiB (10%)



            --As Eternity has reckoned There's a lifetime in a second--
	


More Screens: 
http://bayimg.com/PaKbLAaEP 
http://bayimg.com/PaKbLAaEP
